<svg width="14" height="14" viewBox="0 0 14 14" fill="none" xmlns="http://www.w3.org/2000/svg">
<path d="M6.99992 3.66659C6.63325 3.66659 6.33325 3.96659 6.33325 4.33325V6.33325H4.33325C3.96659 6.33325 3.66659 6.63325 3.66659 6.99992C3.66659 7.36659 3.96659 7.66659 4.33325 7.66659H6.33325V9.66659C6.33325 10.0333 6.63325 10.3333 6.99992 10.3333C7.36659 10.3333 7.66659 10.0333 7.66659 9.66659V7.66659H9.66659C10.0333 7.66659 10.3333 7.36659 10.3333 6.99992C10.3333 6.63325 10.0333 6.33325 9.66659 6.33325H7.66659V4.33325C7.66659 3.96659 7.36659 3.66659 6.99992 3.66659ZM6.99992 0.333252C3.31992 0.333252 0.333252 3.31992 0.333252 6.99992C0.333252 10.6799 3.31992 13.6666 6.99992 13.6666C10.6799 13.6666 13.6666 10.6799 13.6666 6.99992C13.6666 3.31992 10.6799 0.333252 6.99992 0.333252ZM6.99992 12.3333C4.05992 12.3333 1.66659 9.93992 1.66659 6.99992C1.66659 4.05992 4.05992 1.66659 6.99992 1.66659C9.93992 1.66659 12.3333 4.05992 12.3333 6.99992C12.3333 9.93992 9.93992 12.3333 6.99992 12.3333Z" fill="#9873FF"/>
</svg>
